<svg width="81" height="48" viewBox="0 0 81 48" fill="none" xmlns="http://www.w3.org/2000/svg">
<path d="M11.9236 24.2061C18.3547 24.2061 23.5684 29.4197 23.5684 35.8508C23.5684 42.2819 18.3547 47.4954 11.9236 47.4954C5.4925 47.4954 0.278889 42.2818 0.278889 35.8508C0.279045 29.4197 5.4925 24.2061 11.9236 24.2061ZM11.9236 43.0036C15.874 43.0036 19.0766 39.8011 19.0766 35.8506C19.0766 31.9001 15.8741 28.6976 11.9236 28.6976C7.9733 28.6976 4.77078 31.9001 4.77078 35.8506C4.77078 39.8011 7.9733 43.0036 11.9236 43.0036Z" fill="#444D56"/>
<path d="M11.9241 44.2269C16.3556 44.2269 20.0286 40.7644 20.2861 36.3439L17.8413 36.2014C17.6591 39.3285 15.0599 41.7779 11.9241 41.7779C8.6553 41.7779 5.99592 39.1185 5.99592 35.8497C5.99592 32.581 8.6553 29.9216 11.9241 29.9216C14.0983 29.9216 16.0947 31.1086 17.1342 33.0194L19.2857 31.8491C17.8171 29.1497 14.9966 27.4727 11.9244 27.4727C7.30529 27.4727 3.54731 31.2306 3.54731 35.8497C3.547 40.469 7.30498 44.2269 11.9241 44.2269Z" fill="#1D2C30"/>
<path d="M68.6336 24.2061C75.0647 24.2061 80.2783 29.4197 80.2783 35.8508C80.2783 42.2819 75.0647 47.4954 68.6336 47.4954C62.2025 47.4954 56.9888 42.2818 56.9888 35.8508C56.989 29.4197 62.2026 24.2061 68.6336 24.2061ZM68.6336 43.0036C72.5839 43.0036 75.7866 39.8011 75.7866 35.8506C75.7866 31.9001 72.5841 28.6976 68.6336 28.6976C64.6833 28.6976 61.4807 31.9001 61.4807 35.8506C61.4807 39.8011 64.6833 43.0036 68.6336 43.0036Z" fill="#444D56"/>
<path d="M68.6342 44.2277C73.2534 44.2277 77.0117 40.4697 77.0117 35.8502C77.0117 31.2308 73.2537 27.4727 68.6342 27.4727C64.0146 27.4727 60.2566 31.2306 60.2566 35.8502C60.2566 40.4696 64.0148 44.2277 68.6342 44.2277ZM68.6342 29.9219C71.9031 29.9219 74.5626 32.5813 74.5626 35.8503C74.5626 39.1194 71.9033 41.7788 68.6342 41.7788C65.3651 41.7788 62.7057 39.1194 62.7057 35.8503C62.7057 32.5813 65.3651 29.9219 68.6342 29.9219Z" fill="#1D2C30"/>
<path d="M68.6342 37.0757C68.7949 37.0757 68.9581 37.0438 69.1152 36.9768C69.7371 36.7109 70.0253 35.9912 69.7594 35.3695L63.6238 21.0264C63.3578 20.4045 62.638 20.1163 62.0164 20.3822C61.3945 20.6481 61.1062 21.3678 61.3722 21.9895L67.5078 36.3326C67.7067 36.7971 68.1588 37.0757 68.6342 37.0757Z" fill="#1D2C30"/>
<path d="M30.4568 36.9482L11.0808 36.0793C9.88363 36.0256 9.59925 34.381 10.7088 33.9284L29.7753 26.1485L38.0555 23.3877L45.1572 37.3462L30.4568 36.9482Z" fill="#1D2C30"/>
<path d="M30.5115 7.82072L52.7483 25.5905L53.9205 20.1505L55.7344 11.7342L53.8781 9.37822C52.1181 7.14478 49.3409 5.96102 46.5115 6.24196L40.7563 6.81009L30.5115 7.82072Z" fill="#F2171C"/>
<path d="M61.1749 14.7697L57.2349 3.09274C56.8026 1.80585 57.9955 0.551786 59.2973 0.936944C74.1326 5.3254 79.893 21.9581 80.2578 23.0586C80.2644 23.0781 80.2692 23.0913 80.2725 23.1011C80.2758 23.1109 80.2773 23.1158 80.2773 23.1158" fill="#AF0900"/>
<path d="M47.4607 13.9529C44.7146 19.1105 50.7946 20.015 53.9195 20.1505L55.7334 11.7342L53.8771 9.37822C52.1171 7.14478 49.3399 5.96102 46.5105 6.24196L40.7554 6.81009C42.7277 6.61571 51.0918 7.13493 47.4607 13.9529Z" fill="#AF0900"/>
<path d="M52.748 25.5902L39.5041 30.9864H39.5025L19.7067 21.1398L15.5598 12.3276C14.8855 10.8948 13.5473 9.88745 11.9838 9.63588L2.05783 8.03869C1.0322 7.87369 0.278297 6.98853 0.278297 5.94977C0.278297 4.78133 1.22549 3.83398 2.39408 3.83398H16.4416L30.5114 7.82088H30.513H30.5145L51.7765 13.8454L52.748 25.5902Z" fill="#515F84"/>
<path d="M42.5928 11.2428L38.9526 14.0172C37.1981 15.3545 34.7963 15.4586 32.9326 14.2782L16.4416 3.83398" fill="#444D56"/>
<path d="M45.624 12.1016L31.9334 21.0814L19.7071 21.1397L39.5046 30.9863H49.5651L51.7773 13.845L45.624 12.1016Z" fill="#3B4A6B"/>
<path d="M51.728 43.4356C53.018 43.4356 53.9349 42.1714 53.5229 40.949C52.9833 39.3481 52.6905 37.6335 52.6905 35.8503C52.6905 35.7131 52.6905 35.5743 52.6954 35.4389C52.7493 33.292 53.2374 31.2805 54.0668 29.4715C54.2235 29.1287 54.3916 28.7923 54.5746 28.4626C57.9151 22.4022 65.2146 18.9655 72.4668 20.9638L80.2773 23.1155C77.4839 14.8299 65.8953 9.02576 57.4202 11.1808C53.6716 12.1345 49.9153 15.047 47.9081 16.8C47.0266 17.5702 46.5605 18.7 46.5991 19.8702C46.6033 19.9997 46.6055 20.1296 46.6055 20.2599C46.6055 26.6908 41.3925 31.904 34.9614 31.904H34.9431C33.7767 31.9032 32.7001 32.5368 32.1373 33.5585C30.9357 35.7399 30.0759 37.7354 29.4773 39.3539C29.141 40.2579 28.8859 41.0439 28.6974 41.6781C28.4367 42.5554 29.0968 43.4354 30.012 43.4354H51.728V43.4356Z" fill="#F2171C"/>
<path d="M51.7286 43.4358C53.0186 43.4358 53.9355 42.1716 53.5235 40.9492C52.9839 39.3483 52.6911 37.6337 52.6911 35.8505C52.6911 35.7133 52.6911 35.5745 52.696 35.4391C52.7499 33.2922 53.238 31.2808 54.0674 29.4717C51.1385 34.1689 39.1547 42.2161 29.4781 39.3541C29.1418 40.2581 28.8867 41.0441 28.6982 41.6783C28.4374 42.5556 29.0976 43.4356 30.0127 43.4356H51.7286V43.4358Z" fill="#AF0900"/>
<path d="M42.6268 41.0178H45.8103C46.2818 41.0178 46.7115 40.747 46.915 40.3217L49.6087 34.6893C49.7901 34.31 49.7642 33.864 49.54 33.5081C49.3156 33.1523 48.9246 32.9365 48.504 32.9365H42.8717C42.1954 32.9365 41.6471 33.4848 41.6471 34.1611C41.6471 34.8373 42.1954 35.3856 42.8717 35.3856H46.5612L45.0387 38.5689H42.627C41.9507 38.5689 41.4024 39.1172 41.4024 39.7934C41.4024 40.4695 41.9506 41.0178 42.6268 41.0178Z" fill="#1D2C30"/>
</svg>
