<svg width="144" height="48" viewBox="0 0 144 48" fill="none" xmlns="http://www.w3.org/2000/svg">
<path d="M14.168 32.9914L19.024 37.8285L43.5728 39.9306C43.5728 39.9306 49.8801 38.2314 49.9418 37.8161C50.0034 37.4007 47.1466 21.8692 46.4011 21.3054C45.6556 20.7416 28.2041 18.8828 27.7667 18.8828C27.3293 18.8828 18.0167 21.8028 18.0167 21.8028L14.168 32.9914Z" fill="#2F4859"/>
<path d="M101.358 36.3371L111.762 39.925H135.787L141.446 33.4599L135.727 22.3042L119.431 20.1377L109.675 23.7872L101.358 36.3371Z" fill="#2F4859"/>
<path d="M123.719 47.6289C129.714 47.6289 134.573 42.7694 134.573 36.7749C134.573 30.7804 129.714 25.9209 123.719 25.9209C117.725 25.9209 112.865 30.7804 112.865 36.7749C112.865 42.7694 117.725 47.6289 123.719 47.6289Z" fill="#3A556A"/>
<path d="M121.309 28.334C118.375 29.1401 116.083 31.4324 115.277 34.3665C113.948 39.0264 116.649 43.8812 121.309 45.2096C125.969 46.5381 130.824 43.8371 132.153 39.1771C133.481 34.5172 130.78 29.6624 126.12 28.334C124.548 27.8861 122.882 27.8861 121.309 28.334V28.334ZM124.752 30.1771C124.752 29.6538 125.177 29.2298 125.7 29.2305C125.792 29.2305 125.884 29.2442 125.973 29.2707C128.501 30.0213 130.479 31.9985 131.231 34.5264C131.381 35.0277 131.096 35.5557 130.595 35.7058C130.506 35.7323 130.414 35.7457 130.322 35.7457H126.26C125.98 35.0612 125.436 34.5181 124.752 34.2391V30.1771H124.752ZM122.688 43.3729C122.689 43.8962 122.266 44.3214 121.743 44.3227C121.649 44.323 121.556 44.3093 121.467 44.2825C118.948 43.5214 116.977 41.5496 116.216 39.03C116.066 38.5287 116.351 38.0007 116.852 37.8506C116.94 37.8241 117.032 37.8107 117.124 37.8107H121.179C121.459 38.4952 122.003 39.0383 122.688 39.3173V43.3729H122.688ZM122.688 34.2388C122.003 34.5178 121.459 35.0609 121.18 35.7454H117.118C116.595 35.7438 116.172 35.3182 116.173 34.7949C116.174 34.7039 116.187 34.6133 116.213 34.5261C116.963 31.9943 118.945 30.0156 121.478 29.2704C121.98 29.1213 122.507 29.407 122.657 29.9086C122.683 29.9958 122.696 30.0861 122.696 30.1768L122.688 34.2388ZM123.282 44.3237H124.163H123.282ZM131.231 39.03C130.471 41.5496 128.5 43.521 125.981 44.2825C125.48 44.4335 124.951 44.1493 124.8 43.6484C124.773 43.559 124.759 43.4661 124.76 43.3729V39.3176C125.444 39.0386 125.988 38.4955 126.268 37.811H130.322C130.845 37.8142 131.266 38.2414 131.263 38.7647C131.262 38.8547 131.249 38.9441 131.223 39.0303L131.231 39.03ZM131.35 37.2124V36.3376Z" fill="#E1E6E9"/>
<path d="M31.2642 47.6289C37.2586 47.6289 42.1181 42.7694 42.1181 36.7749C42.1181 30.7804 37.2586 25.9209 31.2642 25.9209C25.2697 25.9209 20.4102 30.7804 20.4102 36.7749C20.4102 42.7694 25.2697 47.6289 31.2642 47.6289Z" fill="#3A556A"/>
<path d="M28.8553 28.334C25.9212 29.1401 23.6286 31.4324 22.8228 34.3665C21.4943 39.0264 24.1953 43.8812 28.8553 45.2096C33.5152 46.5381 38.3699 43.8371 39.6984 39.1771C41.0269 34.5172 38.3259 29.6624 33.6659 28.334C32.0939 27.8861 30.4276 27.8861 28.8553 28.334V28.334ZM32.2979 30.1771C32.2982 29.6538 32.7228 29.2298 33.2461 29.2305C33.3384 29.2305 33.43 29.2442 33.5184 29.2707C36.047 30.021 38.0255 31.9982 38.7773 34.5264C38.9274 35.0277 38.6426 35.5557 38.1414 35.7058C38.0526 35.7323 37.9603 35.7457 37.8677 35.7457H33.8061C33.5264 35.0612 32.9827 34.5181 32.2979 34.2391V30.1771ZM30.2338 43.3729C30.2351 43.8962 29.8121 44.3214 29.2885 44.3227C29.1953 44.323 29.1024 44.3093 29.013 44.2825C26.4937 43.5214 24.5225 41.5496 23.762 39.03C23.612 38.5287 23.8968 38.0007 24.398 37.8506C24.4861 37.8241 24.5778 37.8107 24.67 37.8107H28.7253C29.005 38.4952 29.5487 39.0383 30.2335 39.3173L30.2338 43.3729ZM30.2338 34.2388C29.549 34.5178 29.0053 35.0609 28.7256 35.7454H24.664C24.1407 35.7438 23.7177 35.3182 23.7193 34.7949C23.7196 34.7039 23.733 34.6133 23.7592 34.5261C24.5072 31.9963 26.4863 30.0178 29.0165 29.2704C29.5181 29.1213 30.0455 29.407 30.1949 29.9086C30.2207 29.9958 30.2342 30.0861 30.2342 30.1768L30.2338 34.2388ZM38.7697 39.03C38.0089 41.5499 36.0371 43.5217 33.5171 44.2825C33.0162 44.4335 32.4875 44.1493 32.3365 43.6484C32.3097 43.559 32.296 43.4661 32.2963 43.3729V39.3176C32.9811 39.0386 33.5248 38.4955 33.8045 37.811H37.8598C38.383 37.8101 38.808 38.2334 38.8093 38.7567C38.8096 38.8493 38.7962 38.9415 38.7697 39.03V39.03Z" fill="#E1E6E9"/>
<path d="M135.711 18.7198C128.346 15.7289 111.392 13.2731 104.487 14.2711C104.487 14.2711 90.6774 2.14903 75.3339 0.848028C65.0789 0.191303 54.7916 0.212694 44.5394 0.912839C41.568 1.09163 38.6403 1.71515 35.8538 2.76201C30.745 4.68238 21.8745 8.09499 15.0369 11.1318L6.23606 11.5012C4.99221 11.5504 3.97823 12.5149 3.86712 13.7549L0.0771484 25.2484C0.0771484 25.2484 0.767396 33.6102 1.91866 35.6806L19.0245 37.8235C19.0245 37.8235 17.7248 22.7846 31.606 23.6738C45.4873 24.5629 43.5733 39.9316 43.5733 39.9316H111.763C111.763 39.9316 110.683 31.0232 117.016 26.3661C121.616 23.0091 127.94 23.3389 132.167 27.1557C134.764 29.5246 136.832 33.4726 135.788 39.9361L142.769 38.0633L143.076 27.0088C143.075 27.0091 143.075 21.7122 135.711 18.7198V18.7198Z" fill="#FE7058"/>
<path d="M61.6801 2.15053V13.1939L28.6006 11.6384C28.6006 11.6384 35.7511 2.81237 56.1862 2.1633C57.3372 2.1317 59.4376 2.1317 61.6801 2.15053V2.15053Z" fill="#3A556A"/>
<path d="M101.358 15.0635L63.752 13.2964V2.17871C65.9945 2.21351 68.1249 2.26555 69.3423 2.31919C81.1362 2.88205 92.4039 7.36738 101.358 15.0635Z" fill="#3A556A"/>
<path d="M142.114 25.2078C141.24 22.6116 137.595 19.2654 136.913 21.1225C136.913 21.1225 135.887 24.4387 140.23 27.67C140.829 28.1147 141.676 27.9892 142.121 27.3897C142.292 27.1585 142.385 26.8788 142.387 26.5912C142.365 26.119 142.274 25.6525 142.114 25.2078V25.2078Z" fill="#E1E6E9"/>
<path d="M3.86996 13.749L8.41021 14.5622L4.82871 25.0324L0.0751953 25.2422L3.86996 13.749Z" fill="#E1E6E9"/>
</svg>
