<svg width="91" height="69" viewBox="0 0 91 69" fill="none" xmlns="http://www.w3.org/2000/svg">
<path d="M54.4455 1.48756C54.4455 0.781441 55.018 0.208984 55.7241 0.208984H59.6953C60.2508 0.208984 60.7426 0.567651 60.9126 1.09634L63.2303 8.30893L64.4824 11.65H54.4457V1.48756H54.4455Z" fill="#D7D0D6"/>
<path d="M43.2511 28.668C43.866 28.668 44.3652 29.1672 44.3652 29.7821V44.1722V47.34H39.6038L38.8848 44.1722V28.668H43.2511Z" fill="#BAAFB9"/>
<path d="M48.0968 44.1719H55.1363C55.668 44.1719 56.0967 44.6023 56.0967 45.1323V48.5291C56.0967 49.059 55.668 49.4895 55.1363 49.4895H46.4505V45.4479L48.0968 44.1719Z" fill="#BAAFB9"/>
<path d="M38.8853 44.1719V58.0193H49.4844V45.5592C49.4844 44.7923 48.8622 44.1719 48.0971 44.1719H38.8853Z" fill="#80D261"/>
<path d="M38.8847 59.3761C39.634 59.3761 40.2412 58.7687 40.2412 58.0196V11.8966C40.2412 11.1474 39.634 10.54 38.8847 10.54C38.1353 10.54 37.5281 11.1474 37.5281 11.8966V58.0194C37.5281 58.7687 38.1353 59.3761 38.8847 59.3761Z" fill="#D7D0D6"/>
<path d="M23.7323 32.3181C23.7323 32.3219 23.7338 32.3255 23.7365 32.328L29.1776 37.7692C30.8821 39.4737 31.8398 41.7858 31.8398 44.1964V54.8067V58.0186H17.1799V11.8965H23.9266L23.7323 32.3181Z" fill="#D7D0D6"/>
<path d="M1.5309 33.9795H16.1071L20.5117 37.0733L25.6737 42.2354C25.8184 42.38 25.9469 42.541 26.0518 42.7128L19.9917 46.0255H1.88722L0.00272126 42.7128V37.0733L1.5309 33.9795Z" fill="#97DA7B"/>
<path d="M26.052 42.7129C26.3161 43.1343 26.459 43.6263 26.459 44.1309V55.0067L20.0091 58.618H1.87447L0.00299901 55.0067V42.7129H26.052Z" fill="#80D261"/>
<path d="M26.4336 55.0206L20.0089 58.6179H1.87422L1.42006 57.7414C2.19708 51.3531 7.65016 46.3867 14.2449 46.3867C19.8674 46.3867 24.6603 49.9973 26.4336 55.0206V55.0206Z" fill="#68CA44"/>
<path d="M60.8278 55.0062C61.3885 55.0062 61.8443 54.5522 61.8443 53.9897L61.8843 31.1699H79.3949L82.6191 34.3939V49.4894L69.9148 60.2712H1.41533C0.63578 60.2712 0.00273229 59.6399 0.00273229 58.8586V55.006H60.8278V55.0062Z" fill="#97DA7B"/>
<path d="M80.5669 49.877C85.7706 49.877 90.0029 54.1093 90.0029 59.3112C90.0029 64.5148 85.7706 68.7472 80.5669 68.7472C75.365 68.7472 71.1309 64.5148 71.1309 59.3112C71.1309 54.1093 75.365 49.877 80.5669 49.877Z" fill="#918291"/>
<path d="M72.1779 63.6223C71.5103 62.3289 71.1307 60.8637 71.1307 59.3104C71.1307 55.6552 73.2226 52.4811 76.2707 50.9153H80.886C80.165 50.545 79.3911 50.2641 78.578 50.0889C79.2196 49.9507 79.8846 49.876 80.5669 49.876C85.7706 49.876 90.0029 54.1084 90.0029 59.3102C90.0029 64.5139 85.7706 68.7462 80.5669 68.7462C79.8846 68.7462 79.2163 68.6728 78.5746 68.5346C82.8256 67.6187 86.0247 63.8314 86.0247 59.3102C86.0247 58.7213 85.9702 58.1449 85.8662 57.5858C85.6836 56.6033 84.5728 56.1077 83.7182 56.6259L72.1779 63.6223Z" fill="#7A6D79"/>
<path d="M76.5564 59.3099C76.5564 61.5255 78.3524 63.3198 80.5663 63.3198C82.7819 63.3198 84.5762 61.5255 84.5762 59.3099C84.5762 57.096 82.7819 55.3018 80.5663 55.3018C78.3524 55.3018 76.5564 57.096 76.5564 59.3099Z" fill="#7A6D79"/>
<path d="M83.6045 56.6945L76.8419 60.7943C76.6587 60.335 76.557 59.8346 76.557 59.3099C76.557 57.096 78.3531 55.3018 80.5669 55.3018C81.7819 55.3018 82.8693 55.842 83.6045 56.6945V56.6945Z" fill="#685E68"/>
<path d="M79.3949 31.1711L82.6191 34.3953V49.4908L69.9148 60.2725H68.931H65.8443C65.8233 59.9518 65.8124 59.6304 65.8124 59.311C65.8124 53.157 69.6004 47.8732 74.9665 45.6639C76.6461 44.9724 77.7584 43.3558 77.7584 41.5393V32.2397L64.4445 32.0783C63.8545 32.0783 63.3367 31.7101 63.1325 31.1709H79.3949V31.1711Z" fill="#80D261"/>
<path d="M80.5672 48.1738C82.9417 48.1738 85.1409 48.9185 86.948 50.1853C87.42 50.5161 87.3924 51.2255 86.8993 51.5243L70.7338 61.3246C70.2362 61.6263 69.597 61.3132 69.5223 60.736C69.4619 60.2694 69.4303 59.7937 69.4303 59.3106C69.4304 53.1599 74.4165 48.1738 80.5672 48.1738V48.1738Z" fill="#97DA7B"/>
<path d="M27.1689 59.3115C27.1689 59.6352 27.1528 59.9552 27.1293 60.273H1.41582C1.39737 60.273 1.37946 60.271 1.36119 60.2703C1.33786 59.9532 1.32176 59.6343 1.32176 59.3115C1.32176 57.8028 1.58403 56.3549 2.06134 55.0078H26.4294C26.9065 56.3549 27.1689 57.8028 27.1689 59.3115Z" fill="#80D261"/>
<path d="M14.2466 68.6172C9.10692 68.6172 4.94041 64.4507 4.94041 59.311C4.94041 54.1714 9.10692 50.0049 14.2466 50.0049C19.3862 50.0049 23.5527 54.1714 23.5527 59.311C23.5527 64.4507 19.3862 68.6172 14.2466 68.6172Z" fill="#918291"/>
<path d="M19.5642 59.3109C19.5642 54.856 16.4288 51.1324 12.2479 50.2192C12.8906 50.0789 13.5618 50.0049 14.2466 50.0049C19.3862 50.0049 23.5527 54.1714 23.5527 59.311C23.5527 64.4507 19.3862 68.6172 14.2466 68.6172C13.5618 68.6172 12.887 68.5416 12.2443 68.4013C16.4252 67.4879 19.5642 63.7657 19.5642 59.3109V59.3109Z" fill="#7A6D79"/>
<path d="M14.2446 63.0909C12.157 63.0909 10.4647 61.3986 10.4647 59.3111C10.4647 57.2235 12.157 55.5312 14.2446 55.5312C16.3321 55.5312 18.0244 57.2235 18.0244 59.3111C18.0244 61.3986 16.3321 63.0909 14.2446 63.0909Z" fill="#7A6D79"/>
<path d="M77.0884 48.175H83.8926C84.9384 48.175 85.7861 47.3273 85.7861 46.2815V43.1484C85.7861 42.1026 84.9384 41.2549 83.8926 41.2549H82.6652C79.4189 41.2549 76.7873 43.8866 76.7873 47.1328V47.8737C76.7873 48.0403 76.922 48.175 77.0884 48.175Z" fill="#FEE97D"/>
<path d="M0.0424065 21.3226L2.48398 18.3691H15.8377L18.3502 21.3533V33.8045C18.3502 34.5153 18.6323 35.1972 19.1351 35.7L20.5098 37.0746H0.00261472V22.3644C0.00261472 22.0135 0.0152759 21.6662 0.0424065 21.3226V21.3226Z" fill="#FEE97D"/>
<path d="M14.0569 8.31055H57.2091L59.4297 10.4598V15.2799L57.2091 16.2271H19.7996C19.0001 16.2271 18.3508 16.8764 18.3508 17.6759V21.353L0.0430717 21.3222C0.574832 14.0476 6.64666 8.31055 14.0569 8.31055V8.31055Z" fill="#FEE45A"/>
<path d="M71.3438 11.0703L72.3328 13.6286L81.0635 28.7239L80.5865 30.8818H65.5721L61.6721 11.0703H71.3438Z" fill="#99E6FC"/>
<path d="M76.7866 29.1013L68.056 14.0058L67.067 11.4476H61.7463L61.6721 11.0703H71.3438L72.3328 13.6286L81.0635 28.7239L80.5865 30.8818H76.3932L76.7866 29.1013Z" fill="#62DBFB"/>
<path d="M57.2086 16.2273V17.2772C57.2086 17.516 57.2346 17.7538 57.2865 17.9868L60.7356 33.5059C60.8511 34.0259 61.3124 34.3958 61.8448 34.3958H82.6191V31.9214C82.6191 31.585 82.5305 31.254 82.3623 30.9628L81.0637 28.7236L69.3052 28.7888C68.6523 28.7888 68.0862 28.3384 67.9378 27.7035L64.986 15.0787C64.8196 14.3625 65.3622 13.6788 66.0966 13.6788H71.9803C72.1033 13.6788 72.2209 13.6607 72.333 13.6282C72.8557 13.4762 73.2356 12.9933 73.2356 12.4236V9.56579C73.2356 8.87306 72.6749 8.31055 71.9803 8.31055H57.2086V16.2273Z" fill="#FEE97D"/>
<path d="M77.7586 34.3956C77.7586 33.2009 76.7978 32.2284 75.6032 32.2139L64.4447 32.0788C63.7917 32.0788 63.2256 31.6284 63.0773 30.9936L60.1255 13.1235C59.9591 12.4073 60.5017 11.7236 61.236 11.7236C61.236 11.7236 68.4456 11.7055 68.5577 11.6729C69.0804 11.521 69.4602 11.0381 69.4602 10.4683V8.31055H71.9803C72.6736 8.31055 73.2356 8.87251 73.2356 9.56579V12.4236C73.2356 12.9933 72.8557 13.4762 72.333 13.6282C72.2209 13.6607 72.1033 13.6788 71.9803 13.6788H66.0966C65.3622 13.6788 64.8196 14.3625 64.986 15.0787L67.9378 27.7035C68.0862 28.3384 68.6523 28.7888 69.3052 28.7888L81.0637 28.7236L82.3623 30.9628C82.5305 31.254 82.6191 31.585 82.6191 31.9214V34.3958H77.7586V34.3956Z" fill="#FEE45A"/>
</svg>
