<svg width="121" height="89" viewBox="0 0 121 89" fill="none" xmlns="http://www.w3.org/2000/svg">
<path d="M102.723 22.9072H77.9453V67.816H118.542V47.6027L113.807 31.239C112.38 26.3044 107.86 22.9072 102.723 22.9072Z" fill="#FF7058"/>
<path d="M112.614 47.3954L108.394 32.8091C107.667 30.3017 105.335 28.5469 102.722 28.5469H83.584V47.3954H112.614Z" fill="#84DBFF"/>
<path d="M112.619 47.3876H83.5742V28.5391L112.619 47.3876Z" fill="#CDD6E0"/>
<path d="M112.614 47.3954L108.394 32.8091C107.667 30.3017 105.335 28.5469 102.722 28.5469H83.584L112.614 47.3954Z" fill="#F2F2F2"/>
<path d="M7.94078 15.9561H70.4454C74.5851 15.9561 77.9448 18.537 77.9448 21.7215V67.8128H0.441406V21.7215C0.441406 18.5372 3.79855 15.9561 7.94078 15.9561Z" fill="#FFD15C"/>
<path d="M51.2368 0.374023V20.1897L48.3369 17.29L45.2973 20.3298L42.26 17.29L39.2228 20.3298L36.1804 17.29L33.1033 20.3298L30.0684 17.29L27.1338 20.2249V0.374023H51.2368Z" fill="#F2F2F2"/>
<path d="M120.441 67.8111V76.2853H0.451172V67.8111H12.9751C15.8999 62.5615 21.5244 59.0117 27.9739 59.0117C34.3982 59.0117 40.0228 62.5615 42.9726 67.8111H83.2693C86.1941 62.5615 91.7912 59.0117 98.2406 59.0117C104.69 59.0117 110.29 62.5615 113.239 67.8111H120.441Z" fill="#334A5E"/>
<path d="M110.218 76.2324C110.218 82.8468 104.856 88.2089 98.2411 88.2089C91.6267 88.2089 86.2695 82.8468 86.2695 76.2324C86.2695 69.6179 91.629 64.2559 98.2411 64.2559C104.858 64.2559 110.218 69.6179 110.218 76.2324Z" fill="#40596B"/>
<path d="M103.055 76.2325C103.055 78.8899 100.9 81.0422 98.2453 81.0422C95.5879 81.0422 93.4307 78.8899 93.4307 76.2325C93.4307 73.5752 95.5856 71.4229 98.2453 71.4229C100.9 71.4205 103.055 73.5754 103.055 76.2325Z" fill="#ACB3BA"/>
<path d="M39.9403 76.2324C39.9403 82.8468 34.5757 88.2089 27.9638 88.2089C21.3494 88.2089 15.9873 82.8468 15.9873 76.2324C15.9873 69.6179 21.3494 64.2559 27.9638 64.2559C34.5757 64.2559 39.9403 69.6179 39.9403 76.2324Z" fill="#40596B"/>
<path d="M32.774 76.2325C32.774 78.8899 30.6217 81.0422 27.9644 81.0422C25.307 81.0422 23.1523 78.8899 23.1523 76.2325C23.1523 73.5752 25.3072 71.4229 27.9644 71.4229C30.6215 71.4229 32.774 73.5754 32.774 76.2325Z" fill="#ACB3BA"/>
</svg>
